<svg id="Calque_1" data-name="Calque 1" xmlns="http://www.w3.org/2000/svg" viewBox="0 0 936 525"><defs><style>.cls-1{fill:#fff;}</style></defs><title>score_bravo</title><path class="cls-1" d="M300.58,419l2.91-5.26h17.59a15.08,15.08,0,0,1,2.43.16,3.1,3.1,0,0,1,1.31.46.94.94,0,0,1,.41.76,2.43,2.43,0,0,1-.29,1.05l-.05.11a4.23,4.23,0,0,1-.73,1.1,4,4,0,0,1-1.19.86,6.86,6.86,0,0,1-1.82.56,15.41,15.41,0,0,1-2.64.2H300.58m8.51-15.38,2-3.7H327a17.41,17.41,0,0,1,1.77.07,3.47,3.47,0,0,1,1.11.26.75.75,0,0,1,.46.53,1.45,1.45,0,0,1-.19.88l0,.1a2.73,2.73,0,0,1-.65.88,3.1,3.1,0,0,1-1,.58,6.31,6.31,0,0,1-1.41.31,15.79,15.79,0,0,1-1.87.09H309.09m32.47-13.15h-47l-26,40.68H323A47.88,47.88,0,0,0,333.78,430a28.83,28.83,0,0,0,7.84-3,19.62,19.62,0,0,0,5.21-4.22,16.54,16.54,0,0,0,2.94-4.91l.18-.46a10.22,10.22,0,0,0,.8-4.77,5.5,5.5,0,0,0-1.45-3.18,8.27,8.27,0,0,0-3-1.95,17.67,17.67,0,0,0-3.89-1,24,24,0,0,0,3.74-1,19.68,19.68,0,0,0,3.52-1.6,13.34,13.34,0,0,0,2.9-2.24,8.81,8.81,0,0,0,1.88-2.86l.12-.3a6.09,6.09,0,0,0,.47-3,4,4,0,0,0-1.52-2.6,10.08,10.08,0,0,0-4.23-1.81,36,36,0,0,0-7.71-.68"/><path class="cls-1" d="M380.41,405.29l1.4-4.88h16.52a8.76,8.76,0,0,1,1.89.17,3,3,0,0,1,1.17.49,1.46,1.46,0,0,1,.54.76,2,2,0,0,1,0,1,2.62,2.62,0,0,1-.41,1,2.74,2.74,0,0,1-.86.78,4.66,4.66,0,0,1-1.4.52,9.7,9.7,0,0,1-2,.19H380.41M410,390.46H362.86l-15.14,40.68H373l4.12-14.35h13.42a14.55,14.55,0,0,1,4.17.51,5.49,5.49,0,0,1,2.51,1.46,4.29,4.29,0,0,1,1.07,2.31,8.71,8.71,0,0,1-.16,3.08L397,429.69c0,.17-.07.33-.09.47a3.07,3.07,0,0,0,0,.39,1.06,1.06,0,0,0,0,.32.68.68,0,0,0,.14.26h26l0-.38a5.12,5.12,0,0,1-.27-.75,5.32,5.32,0,0,1-.16-.9,8.83,8.83,0,0,1,0-1.15c0-.44.05-.93.12-1.5l.83-6.77a10.15,10.15,0,0,0-.21-3.86,7.42,7.42,0,0,0-1.65-3.06,9.62,9.62,0,0,0-3.1-2.24,18,18,0,0,0-4.59-1.38,22.92,22.92,0,0,0,3.56-.93,18,18,0,0,0,3.67-1.74,11,11,0,0,0,3-2.67,7.69,7.69,0,0,0,1.5-3.7l.06-.45a7,7,0,0,0-.8-4.57,7.37,7.37,0,0,0-3.3-2.79,18.38,18.38,0,0,0-5.15-1.43,45.1,45.1,0,0,0-6.44-.41"/><path class="cls-1" d="M458.24,412.77l5.34-11,5.89,11Zm21.08-22.32H448.67l-24.89,40.68h25.53L452,425.6H476.3l2.93,5.53h28.19l-28.11-40.68"/><polygon class="cls-1" points="558.41 390.46 535.8 390.46 530.76 414.12 512.9 390.46 488.16 390.46 516.4 431.14 552.5 431.14 558.41 390.46"/><path class="cls-1" d="M603.31,417.6a28,28,0,0,1-6.77-.78,20.12,20.12,0,0,1-5.08-2,15,15,0,0,1-3.46-2.66,10.58,10.58,0,0,1-2-2.82l-.3-.65a5.9,5.9,0,0,1-.61-2.64,3.53,3.53,0,0,1,1-2.35,6.59,6.59,0,0,1,3.11-1.69,21.86,21.86,0,0,1,5.83-.65,30.15,30.15,0,0,1,6.45.65,20.37,20.37,0,0,1,4.86,1.69,14.77,14.77,0,0,1,3.42,2.35,10.91,10.91,0,0,1,2.1,2.64l.42.76a6.85,6.85,0,0,1,.92,2.82,3.74,3.74,0,0,1-.76,2.62,6.13,6.13,0,0,1-3.09,1.93,20.27,20.27,0,0,1-6,.75M590.6,389.75h-2.86a65.87,65.87,0,0,0-16.59,1.7c-4,1.07-6.69,2.6-8.37,4.38a9,9,0,0,0-2.46,6,17.16,17.16,0,0,0,1.26,6.52l.61,1.63A26.25,26.25,0,0,0,566,416.9a30.77,30.77,0,0,0,8,7.15,47.5,47.5,0,0,0,13.89,5.71,87.11,87.11,0,0,0,21.15,2.33h3.34c8.37,0,14.47-.88,18.8-2.33s6.79-3.44,8.06-5.71a9.53,9.53,0,0,0,.7-7.15,23.61,23.61,0,0,0-3.19-6.89l-1.05-1.63a35.22,35.22,0,0,0-5.39-6.52,36.65,36.65,0,0,0-8.62-6,51.06,51.06,0,0,0-12.84-4.38,89.42,89.42,0,0,0-18.31-1.7"/><path class="cls-1" d="M193.17,421.69h-2.88a129.27,129.27,0,0,0-27.94,2.87,100.82,100.82,0,0,0-39.07,17.77,124.43,124.43,0,0,0-13.06,11.26l-2.88,2.83a89.33,89.33,0,0,0-10.57,12.12c-3,4.31-5.07,8.67-5.13,12.6s1.93,7.55,7.07,10.11,13.58,4.15,26.11,4.15h3.46a129,129,0,0,0,32.29-3.92,101.93,101.93,0,0,0,23.6-9.22,83.52,83.52,0,0,0,15.48-10.84,65.72,65.72,0,0,0,8.67-9.3l1.91-2.53H175.31a28.73,28.73,0,0,1-2.56,2.28,33.57,33.57,0,0,1-5.19,3.37,37.43,37.43,0,0,1-8,3.08,42.49,42.49,0,0,1-10.81,1.35c-3.88,0-6.51-.52-8.17-1.41a4,4,0,0,1-2.37-3.55,9.13,9.13,0,0,1,1.6-4.65,30.93,30.93,0,0,1,3.74-4.78l1.05-1.13a44.7,44.7,0,0,1,4.89-4.56,36.88,36.88,0,0,1,6.31-4.07,35.92,35.92,0,0,1,8-2.91,42.72,42.72,0,0,1,9.93-1.11,22,22,0,0,1,7.94,1.1,3.89,3.89,0,0,1,2.68,5.4,12.36,12.36,0,0,1-.94,2H217.5l1-1.37a35.38,35.38,0,0,0,5-8.56c1.13-3,1.5-6.1.35-8.84s-3.76-5.09-8.64-6.79-11.9-2.71-22-2.71"/><polygon class="cls-1" points="311.62 435.99 285.94 435.99 276.2 453.06 247.79 453.06 259.05 435.99 233.37 435.99 190.2 494 220.8 494 236 470.95 266 470.95 252.85 494 283.46 494 311.62 435.99"/><path class="cls-1" d="M336.95,467.4l12-15.65,1.4,15.65ZM373.18,436H337.09l-51.54,58h30.93l6.26-8.09H352l.7,8.09h34.15l-13.69-58"/><polygon class="cls-1" points="490.35 435.99 458.12 435.99 444.85 459.31 433.99 435.99 400.14 435.99 388.95 494 419.31 494 422.71 462.76 435.34 494 449.92 494 465.37 462.76 466.03 494 496.47 494 490.35 435.99"/><path class="cls-1" d="M525.47,458.18,524,451h18.86a9.5,9.5,0,0,1,2.37.27,5.18,5.18,0,0,1,1.67.74,4,4,0,0,1,1.08,1.11,4.92,4.92,0,0,1,.62,1.39l0,.15a3.64,3.64,0,0,1,.15,1.34,2.05,2.05,0,0,1-.46,1.14,2.72,2.72,0,0,1-1.27.8,7.3,7.3,0,0,1-2.27.3H525.47M545.15,436H495.21l7,58h30.6l-3.7-17.93h27.47a40.2,40.2,0,0,0,13-1.76,13.84,13.84,0,0,0,6.9-4.66,10.91,10.91,0,0,0,2-6.59,22.06,22.06,0,0,0-1.53-7.57l-.71-1.92a27.63,27.63,0,0,0-3.76-7.07,22.56,22.56,0,0,0-6-5.56,29.13,29.13,0,0,0-8.88-3.64A53.31,53.31,0,0,0,545.15,436"/><polygon class="cls-1" points="598.73 435.99 573.12 435.99 595.12 494 625.64 494 598.73 435.99"/><path class="cls-1" d="M666.69,474.32a30.5,30.5,0,0,1-8.32-1.12,26.83,26.83,0,0,1-6.6-2.85,24.27,24.27,0,0,1-4.82-3.8,19.7,19.7,0,0,1-3.05-4l-.52-.93a11.14,11.14,0,0,1-1.39-3.74,4.88,4.88,0,0,1,.57-3.33,6,6,0,0,1,3.27-2.38,20.54,20.54,0,0,1,6.76-.91,32.4,32.4,0,0,1,7.82.91,26.31,26.31,0,0,1,6.21,2.38,23.38,23.38,0,0,1,4.7,3.33,20.16,20.16,0,0,1,3.21,3.74l.71,1.08a13.37,13.37,0,0,1,1.87,4,5.11,5.11,0,0,1-3.37,6.52,18.81,18.81,0,0,1-7.05,1.08M644.42,435h-3.37c-8.47,0-14.66.87-19.12,2.35s-7.29,3.61-8.87,6.1a12.42,12.42,0,0,0-1.55,8.46,31.65,31.65,0,0,0,3,9.22l1.11,2.32a49.2,49.2,0,0,0,6.21,9.86,51.65,51.65,0,0,0,11.35,10.33A64.11,64.11,0,0,0,651.38,492a94.66,94.66,0,0,0,26.25,3.42h4c10.15,0,17.29-1.29,22.09-3.42s7.18-5,8-8.32.16-6.8-1.3-10.33a47.37,47.37,0,0,0-5.85-9.86l-1.73-2.32a65.82,65.82,0,0,0-8.29-9.22,59,59,0,0,0-11.89-8.46,66.1,66.1,0,0,0-16.33-6.1,95.63,95.63,0,0,0-22-2.35"/><polygon class="cls-1" points="772.47 422.88 741.12 422.88 768.28 452 712.25 422.88 676.86 422.88 730.59 493.69 767.95 493.69 735.47 455.19 806.49 493.69 844.53 493.69 772.47 422.88"/></svg>