<svg xmlns="http://www.w3.org/2000/svg" xmlns:xlink="http://www.w3.org/1999/xlink" viewBox="0 0 370 350"><defs><style>.cls-1{fill:none;}.cls-2{isolation:isolate;}.cls-3,.cls-4{fill:#27aae1;}.cls-11,.cls-3{opacity:0.2;}.cls-5{clip-path:url(#clip-path);}.cls-6{fill:#fff;}.cls-7{fill:#e73e32;}.cls-8{fill:#d7df23;}.cls-9{fill:#1c75bc;}.cls-10{fill:#e83d32;}.cls-11,.cls-22,.cls-23{fill:#231f20;mix-blend-mode:multiply;}.cls-12{fill:#551513;}.cls-13{fill:#190d0e;}.cls-14{clip-path:url(#clip-path-2);}.cls-15{fill:#feb0c0;}.cls-16{fill:#414042;}.cls-17{fill:#e0d5c7;}.cls-18{fill:#f0e7da;}.cls-19{fill:#8a8280;}.cls-20{fill:#bcb5ad;}.cls-21{fill:#e1cfbc;}.cls-22{opacity:0.05;}.cls-23{opacity:0.1;}</style><clipPath id="clip-path"><circle class="cls-1" cx="185" cy="175" r="133.88"/></clipPath><clipPath id="clip-path-2"><path class="cls-1" d="M149.56,212.93c-9.59-3.23-17.91-11.87-24.72-25.68,1.26-3.88,2.45-7.32,3.49-10.37,4.82-14,7.52-21.89,8.14-40.37a58,58,0,0,1,34.18,1A66.59,66.59,0,0,1,200.09,158c-9.36,16.23-11.3,24.73-14.78,39.9-.62,2.69-1.31,5.73-2.1,9C170.46,214.15,159.14,216.16,149.56,212.93Z"/></clipPath></defs><g class="cls-2"><g id="Layer_1" data-name="Layer 1"><circle class="cls-3" cx="185" cy="175" r="166.46"/><circle class="cls-4" cx="185" cy="175" r="133.88"/><g class="cls-5"><path class="cls-6" d="M337.49,181.88c-2.92-10.47-20.94-22.77-27.85-23.56a30,30,0,0,0-3.34-.19c-9,0-20.48,3.78-28.73,10A95.27,95.27,0,0,0,270.2,150c30.55-24.36,34.95-39,35.36-40.69a5.69,5.69,0,0,0-1.79-5.68c-15.44-13.41-35.88-16.23-50.3-16.23a104.93,104.93,0,0,0-11.26.59A50.7,50.7,0,0,0,211.51,63a6.27,6.27,0,0,0-1.28-.14,5.73,5.73,0,0,0-4.31,2q-2.62-1.47-5.18-2.76C199.1,53,192.09,34.25,162.5,24.44a5.59,5.59,0,0,0-1.79-.29,5.69,5.69,0,0,0-4.8,2.63c-.52.81-11.41,18.07-13,33.51-8.55,1.54-11.52,4.7-12.46,6.16a5.68,5.68,0,0,0,4.11,8.74l1.49.18-6.44,10.09H128.6a46.92,46.92,0,0,0-23,5.86,5.68,5.68,0,0,0-2.49,6.35C89,104.29,82.73,115,82.4,115.53a5.69,5.69,0,0,0,1.09,7l.14.13c-8,13.57-3.07,25.46,1.72,30.66a5.67,5.67,0,0,0,.62.58,81.48,81.48,0,0,0,3.17,16.27A12.47,12.47,0,0,0,81.58,168c-4.81,0-10.18,1.87-15.51,4.27-3.86-7.6-8-14.29-15.08-21.14-9.32-9-13.86-10.14-16.77-10.14-4.31,0-7.49,3-8.11,7.61-.66,4.94,2.48,9.12,4.36,11.62l.29.39c.57.78,1.17,1.53,1.77,2.26-4.09.17-11.66.9-13.64,7.09a8.16,8.16,0,0,0,.55,6.31c2.06,4,7,5.86,9,6.49A31.36,31.36,0,0,0,36.82,184a1.37,1.37,0,0,0,0,.19c-.23,1.93.07,5.6,4.64,8.59a11.81,11.81,0,0,0,6.63,1.89,22,22,0,0,0,8.28-1.92,103.43,103.43,0,0,0,21.08,19,113.5,113.5,0,0,0,40.66,17.12q5.09,1.07,10.35,1.72L120.85,304l71.27,7.51-3.29-80.46c3.41.31,6.85.46,10.72.46,2.47,0,4.9-.06,7.47-.12,2.06,0,4.2-.09,6.49-.11l6.4.92a5.67,5.67,0,0,0,2.7-.26c4.82-1.69,9.35-3.05,13.87-4.17.42-.1.93-.19,1.48-.28l.53-.09a5.84,5.84,0,0,0,2-.73,5.7,5.7,0,0,0,1.85.31h.83a30.75,30.75,0,0,1,4.23.32,5.39,5.39,0,0,0,.8.06,5.64,5.64,0,0,0,3.41-1.14l.28-.22a7.06,7.06,0,0,1,1.22-.71,5.68,5.68,0,0,0,2.92-3.16,5.87,5.87,0,0,0,1.56.21,5.68,5.68,0,0,0,3.55-1.25c9.1-7.28,12.44-18.15,13.14-28.65a5.7,5.7,0,0,0,5.29-5c0-.36.06-.72.09-1.07.91-.1,1.75-.24,2.43-.38a78.31,78.31,0,0,0,12.2-3.54,31.5,31.5,0,0,0-.11,9.3c.93,6.57,4.72,11.1,9.9,11.83a8.93,8.93,0,0,0,1.37.1,11.42,11.42,0,0,0,9.41-5.44,17.6,17.6,0,0,0,2.42-7.28,32.74,32.74,0,0,0,3.73,2.33,14.7,14.7,0,0,0,6.95,2,9.55,9.55,0,0,0,5.93-2A10.29,10.29,0,0,0,337.49,181.88ZM87.84,196.94a89.5,89.5,0,0,1-9.35-7.28c5.22-.9,11.26-2.9,13.71-7.33a8.74,8.74,0,0,0,.72-1.78c.7,1.59,1.19,2.55,1.28,2.72a5.67,5.67,0,0,0,5,3.08h.25A64.65,64.65,0,0,0,105.63,198a5.7,5.7,0,0,0,4.68,2.45,6.06,6.06,0,0,0,1.34-.16,49,49,0,0,0,4.82,7.48c.82,1.05,1.59,1.92,2.28,2.65A95.3,95.3,0,0,1,87.84,196.94Zm79.61-148a32.05,32.05,0,0,1,10.32,11.52c-5,.85-11.09,2.39-15.63,3.63C162.67,59.48,164.93,53.72,167.45,48.91Zm-7.09,217.54-6.85-35.15c2.11-.12,4.22-.27,6.34-.48a5.66,5.66,0,0,0,4.53-3.12c3.49.44,7,.92,10.56,1.44Zm47-140.22a15.14,15.14,0,0,1-13.93,8.11,23.51,23.51,0,0,1-11.66-3.29c-9.64-5.59-12.67-15.24-7.72-24.59,4.16-7.85,15.63-16.64,24.74-16.64a10,10,0,0,1,5.07,1.24C212.24,95.93,213,115.62,207.34,126.23Zm52.2-15.38c1.62-.13,3.41-.22,5.29-.22,4.13,0,9.32.44,13.64,2.19a66,66,0,0,1-13.35,12A92.39,92.39,0,0,0,259.54,110.85Z"/><path class="cls-4" d="M119.27,223.21A107.89,107.89,0,0,1,80.64,207c-16.52-11.25-24-23.32-24.35-23.83L62,179.64c.07.12,7.25,11.56,22.7,22,14.22,9.62,38.6,20.35,74,16.9l.64,6.61A131.08,131.08,0,0,1,119.27,223.21Z"/><path class="cls-7" d="M58.24,185.45c-3.55,1.89-9.78,5.09-13.67,2.53-7.51-4.92,6.85-9.43,10.93-10.92A107.41,107.41,0,0,1,39,178.32a32.38,32.38,0,0,1-8.83-1c-2.06-.64-6.8-2.69-5.85-5.63s6.94-3.1,9.41-3.18a29.5,29.5,0,0,1,19.67,7c-4-3.45-7.83-7-11.49-10.75a74.57,74.57,0,0,1-6.58-7.52c-1.54-2.07-3.95-5.05-3.57-7.85,1.06-7.91,13.4,4,15.34,5.91,7.59,7.31,11.47,14.48,16,23.88l.32.67c4.69-2.28,19.36-9.91,23.47-3.83C92,184,68.07,186.27,63,183.64Z"/><polygon class="cls-4" points="186.21 304 177.2 194.9 139.79 192.83 130.47 304 186.21 304"/><path class="cls-8" d="M152.38,225.55s5.42,25.61,21,3.84Z"/><polygon class="cls-9" points="186.46 311.51 182.84 223.95 158.52 286.16 145.59 219.79 135.58 216.13 126.51 311.51 186.46 311.51"/><polygon class="cls-6" points="176.6 216.28 228.78 210.53 256.44 156.84 264.94 139.66 293.71 111.43 285.98 99.98 252.93 96.58 220.93 92.78 181.78 55.12 165.46 31.58 152.37 78.68 120.2 108.31 115.05 147.16 136.55 195.88 176.6 216.28"/><path class="cls-10" d="M96.08,116.51c-20,18.4-6.54,33-6.54,33-.24-1.5,2.3-7.85,2.3-7.85-2.58,19.64,7.41,39,7.41,39-.14-2.51,2.46-14,2.46-14-1.68,13.34,8.6,28.14,8.6,28.14-1-2.3,1-13.9,1-13.9,1.85,11.53,6.31,19.11,9.69,23.4a26.36,26.36,0,0,0,4.2,4.41l1.78,1.43h0l-.14,0a47.78,47.78,0,0,1,8.8,6.61c-10.17-9.65-6.68-5,.63-1.75,5.36,2.35,8.56,4.82,13.86,5.35,11,1.1,21.84,2.51,32.77,4.23,11.95,1.87,19.65,1.1,31,1q3.42.48,6.84,1c4.74-1.66,9.46-3.11,14.38-4.32.81-.2,1.61-.32,2.41-.45a123.67,123.67,0,0,0,9.26-11.06c.1,3-2.05,7-4.46,10.54a35.69,35.69,0,0,1,5.86.37l.17-.14a12.27,12.27,0,0,1,2.34-1.4l-.79.12c7.48-9.26,11.09-22,11.09-22,2.23,5.49-3.42,18.45-3.42,18.45,19.82-15.87,7.19-53.91,7.19-53.91,4.86,5.81,9.14,24,9.14,24,2.17-17.09-11.06-38.25-11.06-38.25,33.48-25.74,37.2-40.61,37.2-40.61-23.64-20.54-61.13-13.76-61.13-13.76a45.38,45.38,0,0,0-28.68-25.54c6.52,4.09,10.31,12.64,10.31,12.64a147.19,147.19,0,0,0-25-15.34c-.42-5.94-4.16-25.88-34.78-36,0,0-13.16,20.64-12.2,35.47-11.09.9-13.25,4.23-13.25,4.23l10.51,1.24L132.65,91.33a41.71,41.71,0,0,0-24.05,4.81c2.71-.55,9.86,2.71,9.86,2.71-22,3.57-31.12,19.51-31.12,19.51A11.36,11.36,0,0,1,96.08,116.51Zm154.18-10.09s24.79-5.6,36.67,5c0,0-12.44,17.24-25.51,21.51C261.42,132.89,258.1,117.33,250.26,106.42ZM169,103.8c6.55-12.35,25.72-24.59,37.69-17.66s12.22,30.4,5.67,42.75-21.48,14-33.46,7.08S162.46,116.14,169,103.8Zm-3.64-62.61C181.81,48.88,187,65.46,184,65.47c-17.31.08-26.73,5.88-26.73,5.88C152.86,60.41,165.36,41.19,165.36,41.19Z"/><path class="cls-10" d="M261.53,199s-11.34,33-32.45,41.56c0,0,10-11.85,12.54-18.08,0,0-15.8,23.56-56.39,16.94a48.42,48.42,0,0,0,22.55-8S149.83,240,121.6,205.08L197.94,211s42.16-19.45,42.95-19.28S261.53,199,261.53,199Z"/><path class="cls-6" d="M160.53,116.68c10.12,6.24-16.12,9.69-16.12,9.69s-4.42-8.58-4.87-15.61S150.4,110.44,160.53,116.68Z"/><path class="cls-6" d="M141.9,93.84s23.21-13.43,17.75,13.55C159.65,107.39,159.28,87.71,141.9,93.84Z"/><path class="cls-10" d="M174.35,118.85s25-17.94,21.77,13.45C196.12,132.3,193.48,109.91,174.35,118.85Z"/><path class="cls-11" d="M125.59,192.09s7.24,45.56,51.41,19.82L143.28,194.5Z"/><path class="cls-12" d="M201.92,158a9.22,9.22,0,0,1-3.14-2.25l-.14,0c-3.19-1-5.26-3.2-7.9-5.15a28.21,28.21,0,0,0-3.1-2h0a8,8,0,0,1-1.63-.8,82.17,82.17,0,0,0-14-4.6c-2.93-.7-5.87-1.28-8.82-1.85l-.24-.05-.16,0L161,140.9l-4.44-.77c-3.44-.6-6.89-1.21-10.32-1.86l-2.22-.43c-.32-.06-1.64-.37-1.53-.36a18.83,18.83,0,0,1-6.05-2.12,8.76,8.76,0,0,1-1.45-.1c-.65,23.52-4.63,30.05-11.81,52.13,14.48,29.86,35,35.89,61.38,20.69C190,185.48,190.41,177.74,201.92,158Z"/><path class="cls-13" d="M180.68,167.28h0c-.12-.2-6.6-10.09-7.65.66-.21,3.71-.59,7.84-1.32,9.35a5.39,5.39,0,0,1-7.53,2.6,6.33,6.33,0,0,1-2.31-8.2c.7-1.44,3.38-4,6-6.17,8-7.16-2.58-7.54-3.44-7.54a17.12,17.12,0,0,0-14.67,9.88,20,20,0,0,0,7.85,25.7A17,17,0,0,0,181.5,186,20.06,20.06,0,0,0,180.68,167.28Z"/><path class="cls-12" d="M124.64,184.18c.2.34,11.82-12.66,32.86,1.29,0,0,14.83-1.3,28,11.66l-1.62,7-39.26-2-10.53-6.71-9.57-10.8"/><g class="cls-14"><path class="cls-15" d="M121.21,190.59c12.3-14,26.86-8.54,34-4.38-13.52,5.76-15.57,14.43-15.57,14.43a27.42,27.42,0,0,1,15.19-10.52,34.25,34.25,0,0,1,4.78-.88l.08.18v-.23c22.64-.81,31.27,18.63,31.55,19.36-.23-.59-.84-1.79-27.92,15.67C135.2,242.37,100.22,214.49,121.21,190.59Z"/></g><path class="cls-6" d="M134.94,135.3s35.7-6.16,67.05,22.61l-6.28,11.77s-31.15-31.48-61-30.12Z"/><circle class="cls-16" cx="69.19" cy="90.78" r="37.65"/><polygon class="cls-16" points="77.49 115.53 121.73 141.9 90.47 98.94 77.49 115.53"/><polygon class="cls-16" points="124.92 149.91 53 128.33 50.94 136.57 124.92 149.91"/><polygon class="cls-16" points="122.94 157.46 87.93 156.41 88.45 162.93 122.94 157.46"/><path class="cls-6" d="M75.82,111.55A8.13,8.13,0,0,1,64,111.16l-4.3-4.63c-1.15-1.23-2.55-1.6-3.71-.52L53,102.88c1.16-1.08.89-2.51-.25-3.74l-4.28-4.59a8.18,8.18,0,0,1,.43-11.89l2-1.85,3.53,3.79-2,1.86c-1.1,1-1.19,2.72.17,4.18l4.93,5.3c1.3,1.39,2,3,1.28,4.45,1.53-.56,3,.21,4.35,1.6l4.89,5.26c1.33,1.43,3.1,1.53,4.2.51l2-1.86,3.53,3.8Z"/><path class="cls-6" d="M83.9,97l2-1.85c1.1-1,1.13-2.79-.2-4.23l-4.89-5.25c-1.3-1.4-2-3-1.29-4.46-1.53.56-3-.2-4.35-1.6l-4.92-5.29c-1.36-1.47-3.06-1.5-4.16-.48l-2,1.86-3.53-3.79,2-1.86a8.16,8.16,0,0,1,11.88.43L78.72,75c1.14,1.23,2.54,1.61,3.71.52l2.91,3.13c-1.17,1.09-.9,2.51.25,3.74L89.89,87a8.12,8.12,0,0,1-.46,11.85l-2,1.86Z"/><rect class="cls-17" x="181.09" y="170.63" width="165.21" height="117.52" rx="5.53" transform="translate(69.69 -61.33) rotate(15.26)"/><rect class="cls-18" x="179.81" y="166.79" width="165.21" height="117.52" rx="5.53" transform="translate(68.64 -61.13) rotate(15.26)"/><rect class="cls-18" x="178.24" y="164.03" width="165.21" height="117.52" rx="5.53" transform="translate(67.85 -60.81) rotate(15.26)"/><path class="cls-19" d="M212.16,177.84,207.48,195l-9.67-2.64,8.71-31.92,10,2.72,6.71,19.11,4.39-16.08,9.67,2.64-8.71,31.92-9.29-2.54Z"/><path class="cls-19" d="M242.41,170.21l24.22,6.6-2.2,8-14.55-4-1,3.73,14.22,3.88-2.2,8-14.21-3.88-1.11,4.06,14.55,4-2.2,8-24.21-6.6Z"/><path class="cls-19" d="M287.4,197.34l-9,17-10.15-2.77-.43-34.41,10.82,3-1.22,20.65,10.16-18.21,7.28,2-.5,20.84,9.4-18.42,10.86,3-17.85,29.43-10.14-2.77Z"/><path class="cls-19" d="M313.64,211.39a15.4,15.4,0,0,0,9.16,6.93c1.82.49,3.71.34,4.05-.9s-.83-2.23-3.83-3.67c-5-2.39-12.7-5.83-10.52-13.82,1.47-5.41,7.32-9.11,16.08-6.72a21.77,21.77,0,0,1,12.32,8.14l-7,5.44a16.44,16.44,0,0,0-8-5.59c-2.39-.65-3.16.06-3.38.88-.34,1.24.84,2,4.08,3.53,5,2.34,12.4,6,10.39,13.37-1.92,7-8.25,9.68-16.82,7.34-6.79-1.85-10.89-5.13-13.45-9.12Z"/><rect class="cls-20" x="189.11" y="208.25" width="48.36" height="41.68" transform="translate(67.84 -48.07) rotate(15.26)"/><rect class="cls-21" x="248.99" y="228.12" width="80.46" height="8.69" transform="translate(71.4 -67.94) rotate(15.26)"/><rect class="cls-21" x="244.59" y="244.26" width="80.46" height="8.69" transform="translate(75.5 -66.21) rotate(15.26)"/><rect class="cls-21" x="240.18" y="260.41" width="80.46" height="8.69" transform="translate(79.59 -64.48) rotate(15.26)"/><path class="cls-22" d="M319.72,299.76a5.53,5.53,0,0,0,6.8-3.88l28-102.69a5.53,5.53,0,0,0-3.88-6.8l-5.38-1.47L197,268.59Z"/><path class="cls-18" d="M228.74,242.3l.83-24.54a3.62,3.62,0,0,0-3.48-3.74l-4.14-.15c.42.2.85.39,1.26.61a22.07,22.07,0,0,1,4.54,3.15l-3.84,5.43q-2-2.85-6.51-4.06c-2.71-.73-4.36,0-4.94,2.15a3,3,0,0,0,.73,2.64,28,28,0,0,0,5,4.3,18.4,18.4,0,0,1,4.11,4,10.6,10.6,0,0,1,1.1,1.89,9.69,9.69,0,0,1,.33,6.45,9.28,9.28,0,0,1-3.39,5.23l4.69.17A3.62,3.62,0,0,0,228.74,242.3Z"/><path class="cls-18" d="M215,235.28a21.82,21.82,0,0,0-4.56-4.28,22.4,22.4,0,0,1-3.47-3.24c-2.46-2.94-3.29-5.94-2.46-9.06a8.29,8.29,0,0,1,3.1-4.75c.27-.19.54-.38.84-.55l-6.87-.22a3.6,3.6,0,0,0-3.73,3.48L197,241.21a3.6,3.6,0,0,0,3.47,3.72l2.82.1-.2-.1a27.27,27.27,0,0,1-4.54-3.59L203,235.9a12.82,12.82,0,0,0,7.12,4.87q4.56,1.22,5.41-2A4.13,4.13,0,0,0,215,235.28Z"/><path class="cls-7" d="M274.32,179.81h0c1.84,1.36,4.38,1.07,6.62.62a73,73,0,0,0,25.57-10.55A26,26,0,0,0,299.8,191c.43,3.07,2,6.57,5.05,7A5.56,5.56,0,0,0,310,195.2a13.52,13.52,0,0,0,1.69-5.91,51.29,51.29,0,0,0-3.56-24.68,30.21,30.21,0,0,0,15.52,23.69c2.09,1.13,4.82,1.95,6.7.5C339,182.13,315.33,164.7,309,164,297.84,162.69,279.85,170,274.32,179.81Z"/><path class="cls-23" d="M125.3,261l-1.57,11.83s35-.87,40.22-34.92Z"/><path class="cls-8" d="M162.61,235a9.72,9.72,0,0,1-3.07-1.67c-9.36,11.66-25.69,21.72-50.87,4.94l-8.32,14.47s47.59,27.86,64.52-17.2A11.27,11.27,0,0,1,162.61,235Z"/><polygon class="cls-9" points="242.88 50.03 225.37 66.34 249.08 85.25 263.7 67.64 242.88 50.03"/><polygon class="cls-9" points="249.08 85.25 208.25 50.03 204.38 56.03 247.38 87.86 249.08 85.25"/><circle class="cls-9" cx="252.68" cy="56.73" r="3.61"/></g><path class="cls-6" d="M337.49,181.88c-2.92-10.47-20.94-22.77-27.85-23.56a30,30,0,0,0-3.34-.19c-9,0-20.48,3.78-28.73,10A95.27,95.27,0,0,0,270.2,150c30.55-24.36,34.95-39,35.36-40.69a5.69,5.69,0,0,0-1.79-5.68c-15.44-13.41-35.88-16.23-50.3-16.23a104.93,104.93,0,0,0-11.26.59A50.7,50.7,0,0,0,211.51,63a6.27,6.27,0,0,0-1.28-.14,5.73,5.73,0,0,0-4.31,2q-2.62-1.47-5.18-2.76C199.1,53,192.09,34.25,162.5,24.44a5.59,5.59,0,0,0-1.79-.29,5.69,5.69,0,0,0-4.8,2.63c-.52.81-11.41,18.07-13,33.51-8.55,1.54-11.52,4.7-12.46,6.16a5.68,5.68,0,0,0,4.11,8.74l1.49.18-6.44,10.09H128.6a46.92,46.92,0,0,0-23,5.86,5.68,5.68,0,0,0-2.49,6.35C89,104.29,82.73,115,82.4,115.53a5.69,5.69,0,0,0,1.09,7l.14.13c-8,13.57-3.07,25.46,1.72,30.66a5.67,5.67,0,0,0,.62.58,81.48,81.48,0,0,0,3.17,16.27A12.47,12.47,0,0,0,81.58,168c-4.81,0-10.18,1.87-15.51,4.27-3.86-7.6-8-14.29-15.08-21.14-9.32-9-13.86-10.14-16.77-10.14-4.31,0-7.49,3-8.11,7.61-.66,4.94,2.48,9.12,4.36,11.62l.29.39c.57.78,1.17,1.53,1.77,2.26-4.09.17-11.66.9-13.64,7.09a8.16,8.16,0,0,0,.55,6.31c2.06,4,7,5.86,9,6.49A31.36,31.36,0,0,0,36.82,184a1.37,1.37,0,0,0,0,.19c-.23,1.93.07,5.6,4.64,8.59a11.81,11.81,0,0,0,6.63,1.89,22,22,0,0,0,8.28-1.92,103.43,103.43,0,0,0,21.08,19,113.5,113.5,0,0,0,40.66,17.12q5.09,1.07,10.35,1.72l-5.73,55.55c18.83-1.06,37.26,8.89,53.67,17.27a32.74,32.74,0,0,1,15.41,0l-3-72.23c3.41.31,6.85.46,10.72.46,2.47,0,4.9-.06,7.47-.12,2.06,0,4.2-.09,6.49-.11l6.4.92a5.67,5.67,0,0,0,2.7-.26c4.82-1.69,9.35-3.05,13.87-4.17.42-.1.93-.19,1.48-.28l.53-.09a5.84,5.84,0,0,0,2-.73,5.7,5.7,0,0,0,1.85.31h.83a30.75,30.75,0,0,1,4.23.32,5.39,5.39,0,0,0,.8.06,5.64,5.64,0,0,0,3.41-1.14l.28-.22a7.06,7.06,0,0,1,1.22-.71,5.68,5.68,0,0,0,2.92-3.16,5.87,5.87,0,0,0,1.56.21,5.68,5.68,0,0,0,3.55-1.25c9.1-7.28,12.44-18.15,13.14-28.65a5.7,5.7,0,0,0,5.29-5c0-.36.06-.72.09-1.07.91-.1,1.75-.24,2.43-.38a78.31,78.31,0,0,0,12.2-3.54,31.5,31.5,0,0,0-.11,9.3c.93,6.57,4.72,11.1,9.9,11.83a8.93,8.93,0,0,0,1.37.1,11.42,11.42,0,0,0,9.41-5.44,17.6,17.6,0,0,0,2.42-7.28,32.74,32.74,0,0,0,3.73,2.33,14.7,14.7,0,0,0,6.95,2,9.55,9.55,0,0,0,5.93-2A10.29,10.29,0,0,0,337.49,181.88ZM87.84,196.94a89.5,89.5,0,0,1-9.35-7.28c5.22-.9,11.26-2.9,13.71-7.33a8.74,8.74,0,0,0,.72-1.78c.7,1.59,1.19,2.55,1.28,2.72a5.67,5.67,0,0,0,5,3.08h.25A64.65,64.65,0,0,0,105.63,198a5.7,5.7,0,0,0,4.68,2.45,6.06,6.06,0,0,0,1.34-.16,49,49,0,0,0,4.82,7.48c.82,1.05,1.59,1.92,2.28,2.65A95.3,95.3,0,0,1,87.84,196.94Zm79.61-148a32.05,32.05,0,0,1,10.32,11.52c-5,.85-11.09,2.39-15.63,3.63C162.67,59.48,164.93,53.72,167.45,48.91Zm-7.09,217.54-6.85-35.15c2.11-.12,4.22-.27,6.34-.48a5.66,5.66,0,0,0,4.53-3.12c3.49.44,7,.92,10.56,1.44Zm47-140.22a15.14,15.14,0,0,1-13.93,8.11,23.51,23.51,0,0,1-11.66-3.29c-9.64-5.59-12.67-15.24-7.72-24.59,4.16-7.85,15.63-16.64,24.74-16.64a10,10,0,0,1,5.07,1.24C212.24,95.93,213,115.62,207.34,126.23Zm52.2-15.38c1.62-.13,3.41-.22,5.29-.22,4.13,0,9.32.44,13.64,2.19a66,66,0,0,1-13.35,12A92.39,92.39,0,0,0,259.54,110.85Z"/><path class="cls-4" d="M119.27,223.21A107.89,107.89,0,0,1,80.64,207c-16.52-11.25-24-23.32-24.35-23.83L62,179.64c.07.12,7.25,11.56,22.7,22,14.22,9.62,38.6,20.35,74,16.9l.64,6.61A131.08,131.08,0,0,1,119.27,223.21Z"/><path class="cls-7" d="M58.24,185.45c-3.55,1.89-9.78,5.09-13.67,2.53-7.51-4.92,6.85-9.43,10.93-10.92A107.41,107.41,0,0,1,39,178.32a32.38,32.38,0,0,1-8.83-1c-2.06-.64-6.8-2.69-5.85-5.63s6.94-3.1,9.41-3.18a29.5,29.5,0,0,1,19.67,7c-4-3.45-7.83-7-11.49-10.75a74.57,74.57,0,0,1-6.58-7.52c-1.54-2.07-3.95-5.05-3.57-7.85,1.06-7.91,13.4,4,15.34,5.91,7.59,7.31,11.47,14.48,16,23.88l.32.67c4.69-2.28,19.36-9.91,23.47-3.83C92,184,68.07,186.27,63,183.64Z"/><path class="cls-4" d="M176.38,303.32a29.44,29.44,0,0,1,9.7-.86L177.2,194.9l-37.41-2.07L132,286.36C147.54,288.21,162.66,296.32,176.38,303.32Z"/><path class="cls-8" d="M152.38,225.55s5.42,25.61,21,3.84Z"/><path class="cls-9" d="M176.38,303.32c4.07,3.86,7.05,3.57,9.7-.86L182.84,224l-24.32,62.21L145.6,219.79l-10-3.66-6.65,69.95C137.18,297,164.87,304,176.38,303.32Z"/><polygon class="cls-6" points="176.6 216.28 228.78 210.53 256.44 156.84 264.94 139.66 293.71 111.43 285.98 99.98 252.93 96.58 220.93 92.78 181.78 55.12 165.46 31.58 152.37 78.68 120.2 108.31 115.05 147.16 136.55 195.88 176.6 216.28"/><path class="cls-10" d="M96.08,116.51c-20,18.4-6.54,33-6.54,33-.24-1.5,2.3-7.85,2.3-7.85-2.58,19.64,7.41,39,7.41,39-.14-2.51,2.46-14,2.46-14-1.68,13.34,8.6,28.14,8.6,28.14-1-2.3,1-13.9,1-13.9,1.85,11.53,6.31,19.11,9.69,23.4a26.36,26.36,0,0,0,4.2,4.41l1.78,1.43h0l-.14,0a47.78,47.78,0,0,1,8.8,6.61c-10.17-9.65-6.68-5,.63-1.75,5.36,2.35,8.56,4.82,13.86,5.35,11,1.1,21.84,2.51,32.77,4.23,11.95,1.87,19.65,1.1,31,1q3.42.48,6.84,1c4.74-1.66,9.46-3.11,14.38-4.32.81-.2,1.61-.32,2.41-.45a123.67,123.67,0,0,0,9.26-11.06c.1,3-2.05,7-4.46,10.54a35.69,35.69,0,0,1,5.86.37l.17-.14a12.27,12.27,0,0,1,2.34-1.4l-.79.12c7.48-9.26,11.09-22,11.09-22,2.23,5.49-3.42,18.45-3.42,18.45,19.82-15.87,7.19-53.91,7.19-53.91,4.86,5.81,9.14,24,9.14,24,2.17-17.09-11.06-38.25-11.06-38.25,33.48-25.74,37.2-40.61,37.2-40.61-23.64-20.54-61.13-13.76-61.13-13.76a45.38,45.38,0,0,0-28.68-25.54c6.52,4.09,10.31,12.64,10.31,12.64a147.19,147.19,0,0,0-25-15.34c-.42-5.94-4.16-25.88-34.78-36,0,0-13.16,20.64-12.2,35.47-11.09.9-13.25,4.23-13.25,4.23l10.51,1.24L132.65,91.33a41.71,41.71,0,0,0-24.05,4.81c2.71-.55,9.86,2.71,9.86,2.71-22,3.57-31.12,19.51-31.12,19.51A11.36,11.36,0,0,1,96.08,116.51Zm154.18-10.09s24.79-5.6,36.67,5c0,0-12.44,17.24-25.51,21.51C261.42,132.89,258.1,117.33,250.26,106.42ZM169,103.8c6.55-12.35,25.72-24.59,37.69-17.66s12.22,30.4,5.67,42.75-21.48,14-33.46,7.08S162.46,116.14,169,103.8Zm-3.64-62.61C181.81,48.88,187,65.46,184,65.47c-17.31.08-26.73,5.88-26.73,5.88C152.86,60.41,165.36,41.19,165.36,41.19Z"/><path class="cls-10" d="M261.53,199s-11.34,33-32.45,41.56c0,0,10-11.85,12.54-18.08,0,0-15.8,23.56-56.39,16.94a48.42,48.42,0,0,0,22.55-8S149.83,240,121.6,205.08L197.94,211s42.16-19.45,42.95-19.28S261.53,199,261.53,199Z"/><path class="cls-6" d="M160.53,116.68c10.12,6.24-16.12,9.69-16.12,9.69s-4.42-8.58-4.87-15.61S150.4,110.44,160.53,116.68Z"/><path class="cls-6" d="M141.9,93.84s23.21-13.43,17.75,13.55C159.65,107.39,159.28,87.71,141.9,93.84Z"/><path class="cls-10" d="M174.35,118.85s25-17.94,21.77,13.45C196.12,132.3,193.48,109.91,174.35,118.85Z"/><path class="cls-11" d="M125.59,192.09s7.24,45.56,51.41,19.82L143.28,194.5Z"/><path class="cls-12" d="M201.92,158a9.22,9.22,0,0,1-3.14-2.25l-.14,0c-3.19-1-5.26-3.2-7.9-5.15a28.21,28.21,0,0,0-3.1-2h0a8,8,0,0,1-1.63-.8,82.17,82.17,0,0,0-14-4.6c-2.93-.7-5.87-1.28-8.82-1.85l-.24-.05-.16,0L161,140.9l-4.44-.77c-3.44-.6-6.89-1.21-10.32-1.86l-2.22-.43c-.32-.06-1.64-.37-1.53-.36a18.83,18.83,0,0,1-6.05-2.12,8.76,8.76,0,0,1-1.45-.1c-.65,23.52-4.63,30.05-11.81,52.13,14.48,29.86,35,35.89,61.38,20.69C190,185.48,190.41,177.74,201.92,158Z"/><path class="cls-13" d="M180.68,167.28h0c-.12-.2-6.6-10.09-7.65.66-.21,3.71-.59,7.84-1.32,9.35a5.39,5.39,0,0,1-7.53,2.6,6.33,6.33,0,0,1-2.31-8.2c.7-1.44,3.38-4,6-6.17,8-7.16-2.58-7.54-3.44-7.54a17.12,17.12,0,0,0-14.67,9.88,20,20,0,0,0,7.85,25.7A17,17,0,0,0,181.5,186,20.06,20.06,0,0,0,180.68,167.28Z"/><path class="cls-12" d="M124.64,184.18c.2.34,11.82-12.66,32.86,1.29,0,0,14.83-1.3,28,11.66l-1.62,7-39.26-2-10.53-6.71-9.57-10.8"/><g class="cls-14"><path class="cls-15" d="M121.21,190.59c12.3-14,26.86-8.54,34-4.38-13.52,5.76-15.57,14.43-15.57,14.43a27.42,27.42,0,0,1,15.19-10.52,34.25,34.25,0,0,1,4.78-.88l.08.18v-.23c22.64-.81,31.27,18.63,31.55,19.36-.23-.59-.84-1.79-27.92,15.67C135.2,242.37,100.22,214.49,121.21,190.59Z"/></g><path class="cls-6" d="M134.94,135.3s35.7-6.16,67.05,22.61l-6.28,11.77s-31.15-31.48-61-30.12Z"/><circle class="cls-16" cx="69.19" cy="90.78" r="37.65"/><polygon class="cls-16" points="77.49 115.53 121.73 141.9 90.47 98.94 77.49 115.53"/><polygon class="cls-16" points="124.92 149.91 53 128.33 50.94 136.57 124.92 149.91"/><polygon class="cls-16" points="122.94 157.46 87.93 156.41 88.45 162.93 122.94 157.46"/><path class="cls-6" d="M75.82,111.55A8.13,8.13,0,0,1,64,111.16l-4.3-4.63c-1.15-1.23-2.55-1.6-3.71-.52L53,102.88c1.16-1.08.89-2.51-.25-3.74l-4.28-4.59a8.18,8.18,0,0,1,.43-11.89l2-1.85,3.53,3.79-2,1.86c-1.1,1-1.19,2.72.17,4.18l4.93,5.3c1.3,1.39,2,3,1.28,4.45,1.53-.56,3,.21,4.35,1.6l4.89,5.26c1.33,1.43,3.1,1.53,4.2.51l2-1.86,3.53,3.8Z"/><path class="cls-6" d="M83.9,97l2-1.85c1.1-1,1.13-2.79-.2-4.23l-4.89-5.25c-1.3-1.4-2-3-1.29-4.46-1.53.56-3-.2-4.35-1.6l-4.92-5.29c-1.36-1.47-3.06-1.5-4.16-.48l-2,1.86-3.53-3.79,2-1.86a8.16,8.16,0,0,1,11.88.43L78.72,75c1.14,1.23,2.54,1.61,3.71.52l2.91,3.13c-1.17,1.09-.9,2.51.25,3.74L89.89,87a8.12,8.12,0,0,1-.46,11.85l-2,1.86Z"/><rect class="cls-17" x="181.09" y="170.63" width="165.21" height="117.52" rx="5.53" transform="translate(69.69 -61.33) rotate(15.26)"/><rect class="cls-18" x="179.81" y="166.79" width="165.21" height="117.52" rx="5.53" transform="translate(68.64 -61.13) rotate(15.26)"/><rect class="cls-18" x="178.24" y="164.03" width="165.21" height="117.52" rx="5.53" transform="translate(67.85 -60.81) rotate(15.26)"/><path class="cls-19" d="M212.16,177.84,207.48,195l-9.67-2.64,8.71-31.92,10,2.72,6.71,19.11,4.39-16.08,9.67,2.64-8.71,31.92-9.29-2.54Z"/><path class="cls-19" d="M242.41,170.21l24.22,6.6-2.2,8-14.55-4-1,3.73,14.22,3.88-2.2,8-14.21-3.88-1.11,4.06,14.55,4-2.2,8-24.21-6.6Z"/><path class="cls-19" d="M287.4,197.34l-9,17-10.15-2.77-.43-34.41,10.82,3-1.22,20.65,10.16-18.21,7.28,2-.5,20.84,9.4-18.42,10.86,3-17.85,29.43-10.14-2.77Z"/><path class="cls-19" d="M313.64,211.39a15.4,15.4,0,0,0,9.16,6.93c1.82.49,3.71.34,4.05-.9s-.83-2.23-3.83-3.67c-5-2.39-12.7-5.83-10.52-13.82,1.47-5.41,7.32-9.11,16.08-6.72a21.77,21.77,0,0,1,12.32,8.14l-7,5.44a16.44,16.44,0,0,0-8-5.59c-2.39-.65-3.16.06-3.38.88-.34,1.24.84,2,4.08,3.53,5,2.34,12.4,6,10.39,13.37-1.92,7-8.25,9.68-16.82,7.34-6.79-1.85-10.89-5.13-13.45-9.12Z"/><rect class="cls-20" x="189.11" y="208.25" width="48.36" height="41.68" transform="translate(67.84 -48.07) rotate(15.26)"/><rect class="cls-21" x="248.99" y="228.12" width="80.46" height="8.69" transform="translate(71.4 -67.94) rotate(15.26)"/><rect class="cls-21" x="244.59" y="244.26" width="80.46" height="8.69" transform="translate(75.5 -66.21) rotate(15.26)"/><rect class="cls-21" x="240.18" y="260.41" width="80.46" height="8.69" transform="translate(79.59 -64.48) rotate(15.26)"/><path class="cls-22" d="M319.72,299.76a5.53,5.53,0,0,0,6.8-3.88l28-102.69a5.53,5.53,0,0,0-3.88-6.8l-5.38-1.47L197,268.59Z"/><path class="cls-18" d="M228.74,242.3l.83-24.54a3.62,3.62,0,0,0-3.48-3.74l-4.14-.15c.42.2.85.39,1.26.61a22.07,22.07,0,0,1,4.54,3.15l-3.84,5.43q-2-2.85-6.51-4.06c-2.71-.73-4.36,0-4.94,2.15a3,3,0,0,0,.73,2.64,28,28,0,0,0,5,4.3,18.4,18.4,0,0,1,4.11,4,10.6,10.6,0,0,1,1.1,1.89,9.69,9.69,0,0,1,.33,6.45,9.28,9.28,0,0,1-3.39,5.23l4.69.17A3.62,3.62,0,0,0,228.74,242.3Z"/><path class="cls-18" d="M215,235.28a21.82,21.82,0,0,0-4.56-4.28,22.4,22.4,0,0,1-3.47-3.24c-2.46-2.94-3.29-5.94-2.46-9.06a8.29,8.29,0,0,1,3.1-4.75c.27-.19.54-.38.84-.55l-6.87-.22a3.6,3.6,0,0,0-3.73,3.48L197,241.21a3.6,3.6,0,0,0,3.47,3.72l2.82.1-.2-.1a27.27,27.27,0,0,1-4.54-3.59L203,235.9a12.82,12.82,0,0,0,7.12,4.87q4.56,1.22,5.41-2A4.13,4.13,0,0,0,215,235.28Z"/><path class="cls-7" d="M274.32,179.81h0c1.84,1.36,4.38,1.07,6.62.62a73,73,0,0,0,25.57-10.55A26,26,0,0,0,299.8,191c.43,3.07,2,6.57,5.05,7A5.56,5.56,0,0,0,310,195.2a13.52,13.52,0,0,0,1.69-5.91,51.29,51.29,0,0,0-3.56-24.68,30.21,30.21,0,0,0,15.52,23.69c2.09,1.13,4.82,1.95,6.7.5C339,182.13,315.33,164.7,309,164,297.84,162.69,279.85,170,274.32,179.81Z"/><path class="cls-23" d="M125.3,261l-1.57,11.83s35-.87,40.22-34.92Z"/><path class="cls-8" d="M162.61,235a9.72,9.72,0,0,1-3.07-1.67c-9.36,11.66-25.69,21.72-50.87,4.94l-8.32,14.47s47.59,27.86,64.52-17.2A11.27,11.27,0,0,1,162.61,235Z"/><polygon class="cls-9" points="242.88 50.03 225.37 66.34 249.08 85.25 263.7 67.64 242.88 50.03"/><polygon class="cls-9" points="249.08 85.25 208.25 50.03 204.38 56.03 247.38 87.86 249.08 85.25"/><circle class="cls-9" cx="252.68" cy="56.73" r="3.61"/></g></g></svg>